<?xml version="1.0" encoding="UTF-8" standalone="no"?>
<!DOCTYPE svg PUBLIC "-//W3C//DTD SVG 1.1//EN"
 "http://www.w3.org/Graphics/SVG/1.1/DTD/svg11.dtd">
<!-- Generated by graphviz version 2.50.0 (20211204.2007)
 -->
<!-- Title: dependency&#45;cruiser output Pages: 1 -->
<svg width="392pt" height="294pt"
 viewBox="0.00 0.00 392.00 294.00" xmlns="http://www.w3.org/2000/svg" xmlns:xlink="http://www.w3.org/1999/xlink">
<g id="graph0" class="graph" transform="scale(1 1) rotate(0) translate(4 290)">
<title>dependency&#45;cruiser output</title>
<polygon fill="white" stroke="transparent" points="-4,4 -4,-290 388,-290 388,4 -4,4"/>
<g id="clust1" class="cluster">
<title>cluster_src</title>
<path fill="#ffffff" stroke="black" stroke-width="2" d="M20,-8C20,-8 364,-8 364,-8 370,-8 376,-14 376,-20 376,-20 376,-266 376,-266 376,-272 370,-278 364,-278 364,-278 20,-278 20,-278 14,-278 8,-272 8,-266 8,-266 8,-20 8,-20 8,-14 14,-8 20,-8"/>
<text text-anchor="middle" x="192" y="-266.8" font-family="Helvetica,sans-Serif" font-weight="bold" font-size="9.00">src</text>
</g>
<g id="clust2" class="cluster">
<title>cluster_src/js</title>
<path fill="#ffffff" stroke="black" stroke-width="2" d="M93,-16C93,-16 356,-16 356,-16 362,-16 368,-22 368,-28 368,-28 368,-180 368,-180 368,-186 362,-192 356,-192 356,-192 93,-192 93,-192 87,-192 81,-186 81,-180 81,-180 81,-28 81,-28 81,-22 87,-16 93,-16"/>
<text text-anchor="middle" x="224.5" y="-180.8" font-family="Helvetica,sans-Serif" font-weight="bold" font-size="9.00">js</text>
</g>
<g id="clust3" class="cluster">
<title>cluster_src/js/components</title>
<path fill="#ffffff" stroke="black" stroke-width="2" d="M174,-24C174,-24 243,-24 243,-24 249,-24 255,-30 255,-36 255,-36 255,-64 255,-64 255,-70 249,-76 243,-76 243,-76 174,-76 174,-76 168,-76 162,-70 162,-64 162,-64 162,-36 162,-36 162,-30 168,-24 174,-24"/>
<text text-anchor="middle" x="208.5" y="-64.8" font-family="Helvetica,sans-Serif" font-weight="bold" font-size="9.00">components</text>
</g>
<g id="clust4" class="cluster">
<title>cluster_src/js/vendors</title>
<path fill="#ffffff" stroke="black" stroke-width="2" d="M178.5,-84C178.5,-84 348,-84 348,-84 354,-84 360,-90 360,-96 360,-96 360,-154 360,-154 360,-160 354,-166 348,-166 348,-166 178.5,-166 178.5,-166 172.5,-166 166.5,-160 166.5,-154 166.5,-154 166.5,-96 166.5,-96 166.5,-90 172.5,-84 178.5,-84"/>
<text text-anchor="middle" x="263.25" y="-154.8" font-family="Helvetica,sans-Serif" font-weight="bold" font-size="9.00">vendors</text>
</g>
<g id="clust5" class="cluster">
<title>cluster_src/scss</title>
<path fill="#ffffff" stroke="black" stroke-width="2" d="M90,-200C90,-200 142,-200 142,-200 148,-200 154,-206 154,-212 154,-212 154,-240 154,-240 154,-246 148,-252 142,-252 142,-252 90,-252 90,-252 84,-252 78,-246 78,-240 78,-240 78,-212 78,-212 78,-206 84,-200 90,-200"/>
<text text-anchor="middle" x="116" y="-240.8" font-family="Helvetica,sans-Serif" font-weight="bold" font-size="9.00">scss</text>
</g>
<!-- src/index.js -->
<g id="node1" class="node">
<title>src/index.js</title>
<g id="a_node1"><a xlink:href="src/index.js" xlink:title="index.js">
<path fill="#ffffcc" stroke="black" d="M64,-183C64,-183 22,-183 22,-183 19,-183 16,-180 16,-177 16,-177 16,-171 16,-171 16,-168 19,-165 22,-165 22,-165 64,-165 64,-165 67,-165 70,-168 70,-171 70,-171 70,-177 70,-177 70,-180 67,-183 64,-183"/>
<text text-anchor="start" x="27" y="-171.8" font-family="Helvetica,sans-Serif" font-size="9.00">index.js</text>
</a>
</g>
</g>
<!-- src/js/scripts.js -->
<g id="node2" class="node">
<title>src/js/scripts.js</title>
<g id="a_node2"><a xlink:href="src/js/scripts.js" xlink:title="scripts.js">
<path fill="#ffffcc" stroke="black" d="M137,-125C137,-125 95,-125 95,-125 92,-125 89,-122 89,-119 89,-119 89,-113 89,-113 89,-110 92,-107 95,-107 95,-107 137,-107 137,-107 140,-107 143,-110 143,-113 143,-113 143,-119 143,-119 143,-122 140,-125 137,-125"/>
<text text-anchor="start" x="98" y="-113.8" font-family="Helvetica,sans-Serif" font-size="9.00">scripts.js</text>
</a>
</g>
</g>
<!-- src/index.js&#45;&gt;src/js/scripts.js -->
<g id="edge1" class="edge">
<title>src/index.js&#45;&gt;src/js/scripts.js</title>
<path fill="none" stroke="#000000" stroke-width="2" stroke-opacity="0.200000" d="M55.09,-164.94C66.9,-155.29 85.7,-139.94 99.09,-129"/>
<polygon fill="#000000" fill-opacity="0.200000" stroke="#000000" stroke-width="2" stroke-opacity="0.200000" points="100.43,-130.61 103.75,-125.19 97.77,-127.36 100.43,-130.61"/>
</g>
<!-- src/scss/styles.scss -->
<g id="node3" class="node">
<title>src/scss/styles.scss</title>
<g id="a_node3"><a xlink:href="src/scss/styles.scss" xlink:title="styles.scss">
<path fill="#ffffcc" stroke="black" d="M140,-226C140,-226 92,-226 92,-226 89,-226 86,-223 86,-220 86,-220 86,-214 86,-214 86,-211 89,-208 92,-208 92,-208 140,-208 140,-208 143,-208 146,-211 146,-214 146,-214 146,-220 146,-220 146,-223 143,-226 140,-226"/>
<text text-anchor="start" x="94" y="-214.8" font-family="Helvetica,sans-Serif" font-size="9.00">styles.scss</text>
</a>
</g>
</g>
<!-- src/index.js&#45;&gt;src/scss/styles.scss -->
<g id="edge2" class="edge">
<title>src/index.js&#45;&gt;src/scss/styles.scss</title>
<path fill="none" stroke="#000000" stroke-width="2" stroke-opacity="0.200000" d="M58.53,-183.05C64.54,-186.77 71.59,-191.12 78,-195 83.27,-198.2 88.99,-201.62 94.32,-204.79"/>
<polygon fill="#000000" fill-opacity="0.200000" stroke="#000000" stroke-width="2" stroke-opacity="0.200000" points="93.25,-206.6 99.48,-207.85 95.4,-202.98 93.25,-206.6"/>
</g>
<!-- src/js/components/_HeroMedia.js -->
<g id="node4" class="node">
<title>src/js/components/_HeroMedia.js</title>
<g id="a_node4"><a xlink:href="src/js/components/_HeroMedia.js" xlink:title="_HeroMedia.js">
<path fill="#ffffcc" stroke="black" d="M241,-50C241,-50 176,-50 176,-50 173,-50 170,-47 170,-44 170,-44 170,-38 170,-38 170,-35 173,-32 176,-32 176,-32 241,-32 241,-32 244,-32 247,-35 247,-38 247,-38 247,-44 247,-44 247,-47 244,-50 241,-50"/>
<text text-anchor="start" x="178" y="-38.8" font-family="Helvetica,sans-Serif" font-size="9.00">_HeroMedia.js</text>
</a>
</g>
</g>
<!-- src/js/scripts.js&#45;&gt;src/js/components/_HeroMedia.js -->
<g id="edge3" class="edge">
<title>src/js/scripts.js&#45;&gt;src/js/components/_HeroMedia.js</title>
<path fill="none" stroke="#000000" stroke-width="2" stroke-opacity="0.200000" d="M128.1,-106.8C144.06,-93.57 173.58,-69.11 191.78,-54.03"/>
<polygon fill="#000000" fill-opacity="0.200000" stroke="#000000" stroke-width="2" stroke-opacity="0.200000" points="193.32,-55.48 196.59,-50.04 190.64,-52.25 193.32,-55.48"/>
</g>
<!-- src/js/vendors/_lazysizes.js -->
<g id="node5" class="node">
<title>src/js/vendors/_lazysizes.js</title>
<g id="a_node5"><a xlink:href="src/js/vendors/_lazysizes.js" xlink:title="_lazysizes.js">
<path fill="#ffffcc" stroke="black" d="M236.5,-140C236.5,-140 180.5,-140 180.5,-140 177.5,-140 174.5,-137 174.5,-134 174.5,-134 174.5,-128 174.5,-128 174.5,-125 177.5,-122 180.5,-122 180.5,-122 236.5,-122 236.5,-122 239.5,-122 242.5,-125 242.5,-128 242.5,-128 242.5,-134 242.5,-134 242.5,-137 239.5,-140 236.5,-140"/>
<text text-anchor="start" x="182.5" y="-128.8" font-family="Helvetica,sans-Serif" font-size="9.00">_lazysizes.js</text>
</a>
</g>
</g>
<!-- src/js/scripts.js&#45;&gt;src/js/vendors/_lazysizes.js -->
<g id="edge4" class="edge">
<title>src/js/scripts.js&#45;&gt;src/js/vendors/_lazysizes.js</title>
<path fill="none" stroke="#000000" stroke-width="2" stroke-opacity="0.200000" d="M143.18,-120.34C150.91,-121.62 159.56,-123.05 167.95,-124.44"/>
<polygon fill="#000000" fill-opacity="0.200000" stroke="#000000" stroke-width="2" stroke-opacity="0.200000" points="168.02,-126.59 174.28,-125.49 168.71,-122.44 168.02,-126.59"/>
</g>
<!-- src/js/vendors/_swiper.js -->
<g id="node6" class="node">
<title>src/js/vendors/_swiper.js</title>
<g id="a_node6"><a xlink:href="src/js/vendors/_swiper.js" xlink:title="_swiper.js">
<path fill="#ffffcc" stroke="black" d="M231.5,-110C231.5,-110 185.5,-110 185.5,-110 182.5,-110 179.5,-107 179.5,-104 179.5,-104 179.5,-98 179.5,-98 179.5,-95 182.5,-92 185.5,-92 185.5,-92 231.5,-92 231.5,-92 234.5,-92 237.5,-95 237.5,-98 237.5,-98 237.5,-104 237.5,-104 237.5,-107 234.5,-110 231.5,-110"/>
<text text-anchor="start" x="187.5" y="-98.8" font-family="Helvetica,sans-Serif" font-size="9.00">_swiper.js</text>
</a>
</g>
</g>
<!-- src/js/scripts.js&#45;&gt;src/js/vendors/_swiper.js -->
<g id="edge5" class="edge">
<title>src/js/scripts.js&#45;&gt;src/js/vendors/_swiper.js</title>
<path fill="none" stroke="#000000" stroke-width="2" stroke-opacity="0.200000" d="M143.18,-111.66C152.6,-110.1 163.38,-108.31 173.38,-106.66"/>
<polygon fill="#000000" fill-opacity="0.200000" stroke="#000000" stroke-width="2" stroke-opacity="0.200000" points="173.91,-108.7 179.49,-105.64 173.22,-104.55 173.91,-108.7"/>
</g>
<!-- src/js/vendors/_swiperOptions.js -->
<g id="node7" class="node">
<title>src/js/vendors/_swiperOptions.js</title>
<g id="a_node7"><a xlink:href="src/js/vendors/_swiperOptions.js" xlink:title="_swiperOptions.js">
<path fill="#ffffcc" stroke="black" d="M346,-110C346,-110 269,-110 269,-110 266,-110 263,-107 263,-104 263,-104 263,-98 263,-98 263,-95 266,-92 269,-92 269,-92 346,-92 346,-92 349,-92 352,-95 352,-98 352,-98 352,-104 352,-104 352,-107 349,-110 346,-110"/>
<text text-anchor="start" x="271" y="-98.8" font-family="Helvetica,sans-Serif" font-size="9.00">_swiperOptions.js</text>
</a>
</g>
</g>
<!-- src/js/vendors/_swiper.js&#45;&gt;src/js/vendors/_swiperOptions.js -->
<g id="edge6" class="edge">
<title>src/js/vendors/_swiper.js&#45;&gt;src/js/vendors/_swiperOptions.js</title>
<path fill="none" stroke="#000000" stroke-width="2" stroke-opacity="0.200000" d="M237.56,-101C243.64,-101 250.25,-101 256.88,-101"/>
<polygon fill="#000000" fill-opacity="0.200000" stroke="#000000" stroke-width="2" stroke-opacity="0.200000" points="256.97,-103.1 262.97,-101 256.97,-98.9 256.97,-103.1"/>
</g>
</g>
</svg>
